<svg xmlns="http://www.w3.org/2000/svg" fill="none" viewBox="0 0 299 78">
  <rect width="298" height="77" x=".5" y=".5" fill="#000a1f" rx="19.5" />
  <path fill="#00c7ff"
    d="M42.453 37.37c-1.499.642-3.2 1.372-5.404 1.372a10.214 10.214 0 0 1-2.729-.377l1.525 15.69c.054.655.352 1.267.835 1.712a2.613 2.613 0 0 0 1.772.693s2.162.113 2.884.113c.776 0 3.104-.113 3.104-.113a2.61 2.61 0 0 0 1.772-.693c.483-.446.78-1.057.835-1.713l1.633-17.337c-.73-.25-1.467-.416-2.297-.416-1.436 0-2.593.495-3.93 1.068Z"
    opacity=".5" />
  <path fill="#00c7ff"
    d="m55.87 29.213-.23-1.165c-.208-1.044-.678-2.031-1.751-2.409-.344-.12-.734-.173-.998-.423s-.342-.638-.403-.998c-.113-.66-.219-1.322-.335-1.982-.1-.567-.179-1.204-.44-1.725-.338-.698-1.041-1.107-1.74-1.377a10.042 10.042 0 0 0-1.095-.34c-1.747-.46-3.584-.629-5.381-.725a45.203 45.203 0 0 0-6.472.107c-1.602.145-3.289.322-4.81.875-.557.203-1.13.446-1.553.876-.52.527-.689 1.343-.31 2.001.27.468.726.798 1.21 1.016.63.282 1.289.496 1.964.64 1.881.415 3.829.578 5.75.647 2.13.086 4.263.016 6.382-.208a36.403 36.403 0 0 0 1.57-.207c.615-.095 1.01-.898.828-1.458-.216-.67-.8-.93-1.458-.828-.098.015-.194.03-.291.043l-.07.01a35.452 35.452 0 0 1-2.057.2 46.702 46.702 0 0 1-6.184.011 38.934 38.934 0 0 1-2.024-.186l-.2-.025-.044-.006-.207-.03a21.782 21.782 0 0 1-1.266-.226.19.19 0 0 1 0-.371h.008c.363-.078.729-.144 1.096-.201.122-.02.245-.038.368-.057h.004c.23-.015.46-.056.69-.083a43.898 43.898 0 0 1 5.991-.211 40.4 40.4 0 0 1 2.907.183c.208.022.415.044.622.07l.238.03.16.023c.468.07.933.154 1.396.254.686.149 1.566.197 1.871.948.097.238.141.503.195.753l.068.319a.413.413 0 0 1 .141 2.771h-.004l-.099.013-.097.013a60.05 60.05 0 0 1-2.766.294 64.255 64.255 0 0 1-5.53.222 64.88 64.88 0 0 1-8.218-.531c.207.026-.15-.02-.223-.03-.17-.024-.339-.049-.508-.075-.569-.085-1.134-.19-1.702-.282-.686-.113-1.342-.056-1.963.282-.51.28-.922.706-1.182 1.225-.268.553-.347 1.155-.467 1.75-.12.594-.306 1.233-.236 1.844.152 1.316 1.074 2.386 2.399 2.625a69.47 69.47 0 0 0 19.84.657.847.847 0 0 1 .934.928l-.125 1.218-.758 7.383a5877.651 5877.651 0 0 1-1.022 9.934c-.072.716-.082 1.455-.218 2.163-.215 1.113-.969 1.796-2.069 2.046a14.37 14.37 0 0 1-3.071.359c-1.146.006-2.291-.045-3.438-.038-1.223.006-2.721-.106-3.665-1.016-.83-.8-.945-2.05-1.058-3.133-.15-1.432-.3-2.864-.448-4.296l-.83-7.963-.537-5.152-.026-.255c-.065-.615-.5-1.216-1.187-1.185-.587.026-1.254.524-1.186 1.185l.399 3.82.823 7.9.702 6.735c.045.43.088.861.135 1.291.258 2.35 2.054 3.617 4.278 3.973 1.3.21 2.63.252 3.948.273 1.69.028 3.397.093 5.059-.213 2.463-.452 4.31-2.095 4.575-4.645l.225-2.208.75-7.306.817-7.958.375-3.646a.847.847 0 0 1 .682-.745c.704-.137 1.377-.371 1.878-.907.798-.853.957-1.965.675-3.085Zm-26.493.786c.011-.005-.009.087-.017.13-.002-.065.002-.122.017-.13Zm.069.529c.005-.004.022.018.04.045-.027-.024-.044-.043-.04-.045Zm.067.088c.024.041.037.067 0 0Zm.135.11h.003c0 .004.007.008.009.012a.087.087 0 0 0-.013-.012h.001Zm23.637-.164c-.253.24-.634.352-1.01.408-4.225.627-8.511.944-12.782.804-3.057-.105-6.081-.444-9.107-.871-.297-.042-.618-.096-.822-.314-.384-.412-.196-1.242-.096-1.74.092-.456.267-1.064.81-1.128.847-.1 1.83.257 2.669.384 1.009.154 2.022.277 3.038.37 4.339.395 8.75.334 13.07-.244a54.562 54.562 0 0 0 2.353-.369c.697-.125 1.469-.359 1.89.362.288.49.326 1.148.282 1.703a.949.949 0 0 1-.295.635Zm22.675 17.01c-.939 0-1.613-.271-2.024-.814-.41-.557-.616-1.379-.616-2.464 0-1.1.462-4.202 1.386-9.306l-1.166-2.354c1.657-1.07 3.168-1.606 4.532-1.606.91 0 1.452.44 1.628 1.32 1.51-.865 2.992-1.298 4.444-1.298.953 0 1.79.22 2.508.66.85.513 1.276 1.4 1.276 2.662 0 2.083-1.151 3.593-3.454 4.532 2.347.41 3.52 1.723 3.52 3.938 0 1.437-.594 2.581-1.782 3.432a6.718 6.718 0 0 1-4.004 1.276c-1.467 0-2.647-.308-3.542-.924-.865.63-1.767.946-2.706.946Zm6.952-5.214c0-.69-.205-1.195-.616-1.518-.396-.323-.931-.484-1.606-.484s-1.43.14-2.266.418c-.235 1.247-.352 2.31-.352 3.19a5.223 5.223 0 0 0 2.244.506c.777 0 1.4-.183 1.87-.55.484-.367.726-.887.726-1.562Zm-1.43-8.404c-.572 0-1.188.11-1.848.33-.088.572-.36 2.039-.814 4.4 1.217-.088 2.251-.381 3.102-.88.85-.513 1.276-1.247 1.276-2.2 0-1.1-.572-1.65-1.716-1.65ZM93.556 47.55c-1.29 0-2.192-.315-2.706-.946-.513-.63-.77-1.423-.77-2.376 0-.968.162-2.288.484-3.96.323-1.672.484-2.882.484-3.63 0-.748-.154-1.335-.462-1.76 1.364-.719 2.516-1.078 3.454-1.078.602 0 1.034.125 1.298.374.28.235.418.623.418 1.166 0 .543-.227 1.877-.682 4.004-.44 2.112-.66 3.417-.66 3.916 0 .499.14.895.418 1.188.28.279.646.418 1.1.418.455 0 .94-.176 1.452-.528.514-.367.932-.88 1.254-1.54.206-1.188.61-3.065 1.21-5.632l-1.32-1.76c1.482-1.07 2.89-1.606 4.224-1.606.66 0 1.13.125 1.408.374.294.235.44.601.44 1.1 0 .484-.271 1.885-.814 4.202-.528 2.317-.792 3.967-.792 4.95 0 .968.228 1.65.682 2.046-.821.719-1.686 1.078-2.596 1.078-.894 0-1.54-.198-1.936-.594-.396-.396-.594-.917-.594-1.562l-.22-.11c-.484.704-1.158 1.261-2.024 1.672a6.435 6.435 0 0 1-2.75.594Zm19.199-.99a6.041 6.041 0 0 1-2.068.374c-.689 0-1.268-.205-1.738-.616-.469-.41-.74-.968-.814-1.672-.073-.704-.139-1.723-.198-3.058-.058-1.35-.117-2.303-.176-2.86-.19-1.863-.777-3.19-1.76-3.982.69-.63 1.555-.946 2.596-.946.572 0 1.071.154 1.496.462.426.293.763.69 1.012 1.188.264.484.477 1.115.638 1.892.25 1.29.374 3.036.374 5.236 0 .543-.022 1.18-.066 1.914h1.276c1.511-4.077 2.266-6.857 2.266-8.338 0-.499-.11-.968-.33-1.408 1.027-.63 1.922-.946 2.684-.946 1.423 0 2.134.821 2.134 2.464 0 1.305-.601 3.6-1.804 6.886-.22.601-.344.953-.374 1.056-1.862 5.31-4.51 7.964-7.942 7.964-1.041 0-1.899-.227-2.574-.682-.674-.44-1.012-1.027-1.012-1.76 0-.719.272-1.474.814-2.266.704.997 1.584 1.496 2.64 1.496.602 0 1.159-.198 1.672-.594.528-.396.946-.997 1.254-1.804Zm32.871 1.012c-.954 0-1.636-.271-2.046-.814-.411-.557-.616-1.371-.616-2.442 0-1.07.344-3.535 1.034-7.392h-.352c-.895 1.173-1.636 2.574-2.222 4.202-.587 1.628-.946 3.095-1.078 4.4-.719.675-1.548 1.012-2.486 1.012-.382 0-.719-.132-1.012-.396-.279-.279-.558-.755-.836-1.43-.543-1.364-.932-3.96-1.166-7.788h-.352c-.719 3.153-1.078 5.375-1.078 6.666 0 1.29.22 2.288.66 2.992-.88.66-1.797.99-2.75.99-.954 0-1.636-.271-2.046-.814-.411-.557-.616-1.379-.616-2.464 0-1.1.462-4.202 1.386-9.306l-1.166-2.354c1.657-1.07 3.168-1.606 4.532-1.606.601 0 1.107.066 1.518.198.425.117.828.352 1.21.704.396.352.718.843.968 1.474.572 1.423.982 3.498 1.232 6.226h.264c.762-2.244 1.818-4.173 3.168-5.786a8.075 8.075 0 0 1 2.618-2.046 7.5 7.5 0 0 1 3.322-.748c1.129 0 1.694.682 1.694 2.046 0 .455-.286 2.149-.858 5.082-.558 2.919-.836 4.657-.836 5.214 0 1.423.22 2.486.66 3.19-.88.66-1.797.99-2.75.99Zm11.795-.022c-2.01 0-3.564-.52-4.664-1.562-1.086-1.041-1.628-2.45-1.628-4.224 0-2.361.806-4.275 2.42-5.742 1.628-1.481 3.666-2.222 6.116-2.222 1.364 0 2.398.308 3.102.924.704.601 1.056 1.4 1.056 2.398 0 1.364-.668 2.5-2.002 3.41-1.32.895-3.366 1.35-6.138 1.364.044.939.256 1.68.638 2.222.381.528.858.792 1.43.792s1.063-.19 1.474-.572c.425-.381.638-1.005.638-1.87 2.141 0 3.212.506 3.212 1.518 0 .865-.528 1.68-1.584 2.442-1.056.748-2.413 1.122-4.07 1.122Zm1.87-11.176c-.748 0-1.438.374-2.068 1.122-.616.748-1.064 1.628-1.342 2.64 1.466-.117 2.566-.447 3.3-.99.748-.557 1.122-1.144 1.122-1.76a.986.986 0 0 0-.286-.726c-.176-.19-.418-.286-.726-.286Zm21.296 7.92-.22-.11c-.396 1.056-.968 1.885-1.716 2.486-.733.587-1.554.88-2.464.88-1.246 0-2.244-.47-2.992-1.408-.748-.939-1.122-2.193-1.122-3.762 0-2.435.814-4.473 2.442-6.116 1.643-1.643 3.682-2.464 6.116-2.464.631 0 1.21.059 1.738.176.088.41.14.77.154 1.078.734-.47 1.489-.704 2.266-.704 1.071 0 1.606.58 1.606 1.738 0 .41-.234 1.65-.704 3.718-.454 2.068-.682 3.6-.682 4.598 0 .997.228 1.687.682 2.068-.821.719-1.679 1.078-2.574 1.078-.88 0-1.525-.264-1.936-.792-.396-.528-.594-1.35-.594-2.464Zm-4.378-2.992c0 .719.147 1.276.44 1.672.308.381.741.572 1.298.572.558 0 1.108-.205 1.65-.616.543-.41.998-.975 1.364-1.694.132-1.481.418-3.234.858-5.258-1.481 0-2.786.535-3.916 1.606-1.129 1.07-1.694 2.31-1.694 3.718Zm18.439-1.056c0-1.027.22-2.068.66-3.124.44-1.07 1.064-2.06 1.87-2.97.807-.91 1.856-1.65 3.146-2.222a9.728 9.728 0 0 1 4.026-.88c1.394 0 2.479.257 3.256.77.792.513 1.188 1.225 1.188 2.134 0 .91-.3 1.62-.902 2.134a3.032 3.032 0 0 1-2.024.748c-.762 0-1.452-.161-2.068-.484a3.884 3.884 0 0 1-1.452-1.43c-.792.381-1.474 1.13-2.046 2.244-.572 1.115-.858 2.237-.858 3.366 0 1.115.184 2.002.55 2.662.367.645.888.968 1.562.968.675 0 1.269-.345 1.782-1.034.528-.69.792-1.518.792-2.486 1.482 0 2.538.117 3.168.352.646.235.968.74.968 1.518 0 1.217-.66 2.361-1.98 3.432-1.32 1.07-2.977 1.606-4.972 1.606-1.994 0-3.608-.616-4.84-1.848-1.217-1.232-1.826-3.05-1.826-5.456Zm26.194-4.774c.821 0 1.525.33 2.112.99.601.66.902 1.62.902 2.882 0 1.247-.22 2.405-.66 3.476-.44 1.056-1.019 1.921-1.738 2.596A8.145 8.145 0 0 1 219.016 47a7.408 7.408 0 0 1-2.794.55c-1.921 0-3.439-.528-4.554-1.584-1.115-1.056-1.672-2.457-1.672-4.202 0-2.361.755-4.275 2.266-5.742 1.525-1.481 3.461-2.222 5.808-2.222.528 0 1.056.059 1.584.176.161.484.249 1.034.264 1.65.308-.103.616-.154.924-.154Zm-2.706 3.058c0-.41.095-.873.286-1.386.205-.513.528-.924.968-1.232-1.936.41-3.271 1.195-4.004 2.354-.631.997-.946 2.024-.946 3.08s.213 1.907.638 2.552c.44.63.997.946 1.672.946 1.496 0 2.552-.975 3.168-2.926-1.188-.733-1.782-1.863-1.782-3.388Zm7.806 1.496a3.267 3.267 0 0 1-.154-.99c0-.704.198-1.24.594-1.606.396-.367.902-.557 1.518-.572a6.835 6.835 0 0 1-.154-1.496c0-1.613.418-3 1.254-4.158.836-1.173 2.017-1.76 3.542-1.76.836 0 1.489.25 1.958.748.484.499.726 1.078.726 1.738 0 .66-.227 1.225-.682 1.694-.454.455-1.048.682-1.782.682-.733 0-1.386-.176-1.958-.528l-.308.242.77 2.618a10.9 10.9 0 0 0 2.332-.594c.103.323.154.719.154 1.188 0 .455-.139.887-.418 1.298-.264.396-.652.653-1.166.77-.938 4.327-1.408 7.407-1.408 9.24 0 .939.228 1.606.682 2.002-1.07.719-2.024 1.078-2.86 1.078-1.642 0-2.464-1.012-2.464-3.036 0-1.261.455-4.239 1.364-8.932-.66.132-1.173.257-1.54.374Zm9.497 0a3.236 3.236 0 0 1-.154-.99c0-.704.198-1.24.594-1.606.396-.367.902-.557 1.518-.572a6.774 6.774 0 0 1-.154-1.496c0-1.613.418-3 1.254-4.158.836-1.173 2.016-1.76 3.542-1.76.836 0 1.488.25 1.958.748.484.499.726 1.078.726 1.738a2.35 2.35 0 0 1-.682 1.694c-.455.455-1.049.682-1.782.682-.734 0-1.386-.176-1.958-.528l-.308.242.77 2.618c.762-.103 1.54-.3 2.332-.594.102.323.154.719.154 1.188 0 .455-.14.887-.418 1.298-.264.396-.653.653-1.166.77-.939 4.327-1.408 7.407-1.408 9.24 0 .939.227 1.606.682 2.002-1.071.719-2.024 1.078-2.86 1.078-1.643 0-2.464-1.012-2.464-3.036 0-1.261.454-4.239 1.364-8.932a14.92 14.92 0 0 0-1.54.374Zm15.568 7.524c-2.01 0-3.564-.52-4.664-1.562-1.086-1.041-1.628-2.45-1.628-4.224 0-2.361.806-4.275 2.42-5.742 1.628-1.481 3.666-2.222 6.116-2.222 1.364 0 2.398.308 3.102.924.704.601 1.056 1.4 1.056 2.398 0 1.364-.668 2.5-2.002 3.41-1.32.895-3.366 1.35-6.138 1.364.044.939.256 1.68.638 2.222.381.528.858.792 1.43.792s1.063-.19 1.474-.572c.425-.381.638-1.005.638-1.87 2.141 0 3.212.506 3.212 1.518 0 .865-.528 1.68-1.584 2.442-1.056.748-2.413 1.122-4.07 1.122Zm1.87-11.176c-.748 0-1.438.374-2.068 1.122-.616.748-1.064 1.628-1.342 2.64 1.466-.117 2.566-.447 3.3-.99.748-.557 1.122-1.144 1.122-1.76a.986.986 0 0 0-.286-.726c-.176-.19-.418-.286-.726-.286Zm12.589 11.176c-2.01 0-3.564-.52-4.664-1.562-1.086-1.041-1.628-2.45-1.628-4.224 0-2.361.806-4.275 2.42-5.742 1.628-1.481 3.666-2.222 6.116-2.222 1.364 0 2.398.308 3.102.924.704.601 1.056 1.4 1.056 2.398 0 1.364-.668 2.5-2.002 3.41-1.32.895-3.366 1.35-6.138 1.364.044.939.256 1.68.638 2.222.381.528.858.792 1.43.792s1.063-.19 1.474-.572c.425-.381.638-1.005.638-1.87 2.141 0 3.212.506 3.212 1.518 0 .865-.528 1.68-1.584 2.442-1.056.748-2.413 1.122-4.07 1.122Zm1.87-11.176c-.748 0-1.438.374-2.068 1.122-.616.748-1.064 1.628-1.342 2.64 1.466-.117 2.566-.447 3.3-.99.748-.557 1.122-1.144 1.122-1.76a.986.986 0 0 0-.286-.726c-.176-.19-.418-.286-.726-.286Z" />
  <rect width="298" height="77" x=".5" y=".5" stroke="#00c7ff" rx="19.5" />
</svg>