<svg width="909" height="909" viewBox="0 0 909 909" fill="none" xmlns="http://www.w3.org/2000/svg">
<path d="M606.798 163C365.063 327.215 153.824 466.5 174.386 541C205.299 653 698 283 750.386 385C791.988 466 243.5 769.5 243.5 769.5" stroke="#00C7FF" stroke-width="50"/>
<path d="M667.298 147C681.105 147 692.298 135.807 692.298 122C692.298 108.193 681.105 97 667.298 97C653.491 97 642.298 108.193 642.298 122C642.298 135.807 653.491 147 667.298 147Z" fill="#00C7FF"/>
<path d="M605.298 189C619.105 189 630.298 177.807 630.298 164C630.298 150.193 619.105 139 605.298 139C591.491 139 580.298 150.193 580.298 164C580.298 177.807 591.491 189 605.298 189Z" fill="#00C7FF"/>
<path d="M243 794.78C256.807 794.78 268 783.587 268 769.78C268 755.973 256.807 744.78 243 744.78C229.193 744.78 218 755.973 218 769.78C218 783.587 229.193 794.78 243 794.78Z" fill="#00C7FF"/>
<path d="M181 837C194.807 837 206 825.807 206 812C206 798.193 194.807 787 181 787C167.193 787 156 798.193 156 812C156 825.807 167.193 837 181 837Z" fill="#00C7FF"/>
<path d="M463 691C601.071 691 713 579.071 713 441C713 302.929 601.071 191 463 191C324.929 191 213 302.929 213 441C213 579.071 324.929 691 463 691Z" fill="white"/>
<path d="M175 541.991C205.913 653.991 698.613 283.991 751 385.991" stroke="#00C7FF" stroke-width="50"/>
<path d="M327.503 609.15C320.303 609.15 314.003 607.05 308.603 602.85C303.203 598.65 300.503 589.65 300.503 575.85C300.503 569.55 302.753 559.5 307.253 545.7C311.753 531.9 317.753 515.7 325.253 497.1C333.053 478.2 341.753 458.25 351.353 437.25C360.953 416.25 371.003 395.4 381.503 374.7C392.003 354 402.203 334.8 412.103 317.1C422.003 299.4 431.153 284.4 439.553 272.1C448.253 259.5 455.303 251.1 460.703 246.9C468.503 241.2 476.303 238.35 484.103 238.35C488.303 238.35 492.353 238.8 496.253 239.7C500.453 240.6 503.903 242.1 506.603 244.2C512.903 248.1 518.453 255.6 523.253 266.7C528.353 277.5 532.853 290.55 536.753 305.85C540.953 321.15 544.403 337.65 547.103 355.35C550.103 372.75 552.653 390 554.753 407.1C566.153 405.6 573.953 404.85 578.153 404.85C587.153 404.85 595.103 406.2 602.003 408.9C608.903 411.3 612.503 416.4 612.803 424.2C613.403 431.7 611.003 438 605.603 443.1C600.503 448.2 593.903 451.95 585.803 454.35C582.203 455.55 573.503 457.5 559.703 460.2C560.603 475.5 561.053 488.4 561.053 498.9C561.053 525.6 559.553 546.3 556.553 561C553.853 575.7 550.253 586.2 545.753 592.5C541.553 598.8 537.053 602.55 532.253 603.75C527.753 605.25 523.703 606 520.103 606C519.803 606 519.503 606 519.203 606C510.503 606 504.053 603.75 499.853 599.25C495.953 594.75 494.003 587.25 494.003 576.75V544.8C494.003 534.9 493.853 523.8 493.553 511.5C493.253 499.2 492.653 486.15 491.753 472.35C474.053 475.35 456.353 478.35 438.653 481.35C421.253 484.05 406.253 486.45 393.653 488.55C387.953 502.05 383.003 514.2 378.803 525C374.603 535.5 371.753 543.75 370.253 549.75C365.753 564.45 361.553 576 357.653 584.4C353.753 592.5 350.003 598.2 346.403 601.5C343.103 605.1 339.953 607.2 336.953 607.8C333.953 608.7 330.803 609.15 327.503 609.15ZM418.403 433.2C431.003 430.2 443.153 427.5 454.853 425.1C466.553 422.4 477.653 420 488.153 417.9C486.653 399.3 484.853 381.15 482.753 363.45C480.653 345.75 478.253 330 475.553 316.2C467.753 331.2 458.603 349.2 448.103 370.2C437.903 390.9 428.003 411.9 418.403 433.2Z" fill="black"/>
</svg>
